<svg class="svg-icon" style="width: 1em; height: 1em;vertical-align: middle;fill: currentColor;overflow: hidden;" viewBox="0 0 1024 1024" version="1.1" xmlns="http://www.w3.org/2000/svg"><path d="M607.573333 904.533333h-211.626666C290.133333 904.533333 204.8 819.2 204.8 716.8v-78.506667l-75.093333-75.093333c-37.546667-37.546667-37.546667-95.573333 0-133.12 17.066667-17.066667 37.546667-23.893333 58.026666-27.306667-30.72-37.546667-27.306667-92.16 6.826667-126.293333 27.306667-30.72 78.506667-34.133333 112.64-13.653333 0-23.893333 10.24-44.373333 27.306667-61.44 34.133333-34.133333 95.573333-34.133333 133.12 0 3.413333-20.48 13.653333-37.546667 30.72-54.613334 34.133333-34.133333 95.573333-34.133333 133.12 0l215.04 221.866667c51.2 51.2 81.92 122.88 81.92 197.973333 0 81.92-23.893333 150.186667-71.68 197.973334l-75.093334 71.68c-54.613333 44.373333-112.64 68.266667-174.08 68.266666zM238.933333 672.426667V716.8c0 85.333333 71.68 153.6 157.013334 153.6h211.626666c51.2 0 102.4-20.48 139.946667-58.026667l75.093333-71.68c40.96-40.96 61.44-102.4 61.44-174.08 0-64.853333-23.893333-126.293333-71.68-174.08l-61.44-68.266666L600.746667 170.666667c-20.48-23.893333-61.44-23.893333-81.92 0-20.48 20.48-30.72 51.2-6.826667 78.506666l13.653333 13.653334c6.826667 6.826667 6.826667 17.066667 0 23.893333-6.826667 6.826667-17.066667 6.826667-23.893333 0l-13.653333-13.653333-3.413334-3.413334-44.373333-47.786666c-20.48-23.893333-61.44-23.893333-81.92 0-23.893333 23.893333-23.893333 61.44 0 85.333333l47.786667 54.613333c6.826667 6.826667 6.826667 17.066667 0 23.893334-6.826667 6.826667-17.066667 6.826667-23.893334 0L300.373333 300.373333c-20.48-20.48-61.44-20.48-81.92 0-23.893333 23.893333-23.893333 61.44 0 85.333334l81.92 78.506666c6.826667 6.826667 6.826667 17.066667 0 23.893334s-17.066667 6.826667-23.893333 0l-37.546667-34.133334c-23.893333-23.893333-61.44-23.893333-85.333333 0s-23.893333 61.44 0 85.333334l163.84 167.253333c6.826667 6.826667 6.826667 17.066667 0 23.893333-6.826667 6.826667-17.066667 6.826667-23.893333 0L238.933333 672.426667z" fill="" /></svg>